<svg xmlns="http://www.w3.org/2000/svg" width="29.515" height="29.515" viewBox="0 0 29.515 29.515">
  <defs>
    <style>
      .cls-1 {
        fill: #939393;
      }
    </style>
  </defs>
  <path id="Icon_awesome-plus" data-name="Icon awesome-plus" class="cls-1" d="M27.407,13.845H17.92V4.358A2.108,2.108,0,0,0,15.812,2.25H13.7A2.108,2.108,0,0,0,11.6,4.358v9.487H2.108A2.108,2.108,0,0,0,0,15.954v2.108A2.108,2.108,0,0,0,2.108,20.17H11.6v9.487A2.108,2.108,0,0,0,13.7,31.765h2.108a2.108,2.108,0,0,0,2.108-2.108V20.17h9.487a2.108,2.108,0,0,0,2.108-2.108V15.954A2.108,2.108,0,0,0,27.407,13.845Z" transform="translate(0 -2.25)"/>
</svg>
