<svg xmlns="http://www.w3.org/2000/svg" width="47" height="40.059" viewBox="0 0 47 40.059">
  <g id="Group_83" data-name="Group 83" transform="translate(-1733.316 -631.839)">
    <path id="Icon_ionic-ios-call" data-name="Icon ionic-ios-call" d="M27.68,23.2a20.057,20.057,0,0,0-4.19-2.8c-1.256-.6-1.716-.591-2.6.05-.74.535-1.218,1.032-2.07.845s-2.53-1.455-4.159-3.077-2.9-3.307-3.077-4.159.317-1.33.845-2.07c.64-.889.659-1.349.05-2.6a19.66,19.66,0,0,0-2.8-4.19c-.914-.914-1.119-.715-1.622-.535a9.233,9.233,0,0,0-1.486.789A4.482,4.482,0,0,0,4.779,7.329c-.354.765-.765,2.188,1.324,5.905A32.952,32.952,0,0,0,11.9,20.961h0l.006.006.006.006h0a33.081,33.081,0,0,0,7.727,5.794c3.717,2.089,5.141,1.678,5.906,1.324a4.405,4.405,0,0,0,1.884-1.784,9.232,9.232,0,0,0,.789-1.486C28.395,24.318,28.6,24.113,27.68,23.2Z" transform="translate(1740.387 627.337)" fill="#d3d3d3"/>
    <text id="Audio_Call" data-name="Audio Call" transform="translate(1733.316 660.898)" fill="#fff" font-size="10" font-family="Roboto-Regular, Roboto"><tspan x="0" y="9">Audio Call</tspan></text>
  </g>
</svg>
