<svg xmlns="http://www.w3.org/2000/svg" width="34.532" height="34.532" viewBox="0 0 34.532 34.532">
  <defs>
    <style>
      .cls-1 {
        fill: #939393;
      }
    </style>
  </defs>
  <path id="Icon_material-block" data-name="Icon material-block" class="cls-1" d="M20.266,3A17.266,17.266,0,1,0,37.532,20.266,17.273,17.273,0,0,0,20.266,3ZM6.453,20.266A13.809,13.809,0,0,1,20.266,6.453a13.644,13.644,0,0,1,8.46,2.918L9.371,28.727A13.644,13.644,0,0,1,6.453,20.266ZM20.266,34.079a13.644,13.644,0,0,1-8.46-2.918L31.161,11.806a13.644,13.644,0,0,1,2.918,8.46A13.809,13.809,0,0,1,20.266,34.079Z" transform="translate(-3 -3)"/>
</svg>
