<svg xmlns="http://www.w3.org/2000/svg" width="23.62" height="23.62" viewBox="0 0 23.62 23.62">
  <defs>
    <style>
      .cls-1 {
        fill: #dedbdb;
      }
    </style>
  </defs>
  <path id="Icon_ionic-ios-close-circle" data-name="Icon ionic-ios-close-circle" class="cls-1" d="M15.185,3.375A11.81,11.81,0,1,0,27,15.185,11.808,11.808,0,0,0,15.185,3.375Zm2.992,16.086-2.992-2.992-2.992,2.992a.907.907,0,1,1-1.283-1.283L13.9,15.185,10.91,12.193a.907.907,0,0,1,1.283-1.283L15.185,13.9l2.992-2.992a.907.907,0,0,1,1.283,1.283l-2.992,2.992,2.992,2.992a.912.912,0,0,1,0,1.283A.9.9,0,0,1,18.177,19.461Z" transform="translate(-3.375 -3.375)"/>
</svg>
