<svg xmlns="http://www.w3.org/2000/svg" width="22.375" height="22.375" viewBox="0 0 22.375 22.375">
  <defs>
    <style>
      .cls-1 {
        fill: #dedbdb;
      }
    </style>
  </defs>
  <path id="Icon_awesome-smile" data-name="Icon awesome-smile" class="cls-1" d="M11.188.563A11.188,11.188,0,1,0,22.375,11.75,11.186,11.186,0,0,0,11.188.563ZM14.8,8.141a1.444,1.444,0,1,1-1.444,1.444A1.442,1.442,0,0,1,14.8,8.141Zm-7.218,0A1.444,1.444,0,1,1,6.135,9.585,1.442,1.442,0,0,1,7.579,8.141Zm8.788,7.678a6.739,6.739,0,0,1-10.357,0,.722.722,0,0,1,1.11-.925,5.3,5.3,0,0,0,8.138,0A.722.722,0,0,1,16.366,15.819Z" transform="translate(0 -0.563)"/>
</svg>
