<svg xmlns="http://www.w3.org/2000/svg" width="40.525" height="36.894" viewBox="0 0 40.525 36.894">
  <defs>
    <style>
      .cls-1 {
        fill: #dedbdb;
      }
    </style>
  </defs>
  <g id="sort-down-svgrepo-com" transform="translate(0 -20.609)">
    <g id="Group_35" data-name="Group 35" transform="translate(0 20.609)">
      <g id="Group_34" data-name="Group 34" transform="translate(0 0)">
        <path id="Path_46" data-name="Path 46" class="cls-1" d="M2.251,93.263H24.934v-4.5H2.251a2.251,2.251,0,0,0,0,4.5Z" transform="translate(0 -82.758)"/>
        <path id="Path_47" data-name="Path 47" class="cls-1" d="M2.251,195.82H24.934v-4.5H2.251a2.251,2.251,0,0,0,0,4.5Z" transform="translate(0 -176.282)"/>
        <path id="Path_48" data-name="Path 48" class="cls-1" d="M2.251,293.874h0a2.251,2.251,0,1,0,0,4.5H18.009a5.561,5.561,0,0,1,.475-4.5Z" transform="translate(0 -269.805)"/>
        <path id="Path_49" data-name="Path 49" class="cls-1" d="M251.3,45.448a2.847,2.847,0,0,0-4.026,0l-2.337,2.337V23.455a2.847,2.847,0,0,0-5.693,0v24.33L236.9,45.448a2.847,2.847,0,0,0-4.026,4.026l7.2,7.2a2.848,2.848,0,0,0,4.027,0l7.2-7.2A2.847,2.847,0,0,0,251.3,45.448Z" transform="translate(-211.605 -20.609)"/>
      </g>
    </g>
  </g>
</svg>
