<svg xmlns="http://www.w3.org/2000/svg" width="47" height="40.059" viewBox="0 0 47 40.059">
  <g id="Group_82" data-name="Group 82" transform="translate(-1650 -631.839)">
    <path id="Icon_awesome-video" data-name="Icon awesome-video" d="M16.985,4.5H2.415A2.415,2.415,0,0,0,0,6.915v14.57A2.415,2.415,0,0,0,2.415,23.9h14.57A2.415,2.415,0,0,0,19.4,21.484V6.915A2.415,2.415,0,0,0,16.985,4.5Zm9.568,1.9-5.537,3.819v7.952l5.537,3.814a1.62,1.62,0,0,0,2.546-1.3V7.708A1.621,1.621,0,0,0,26.553,6.4Z" transform="translate(1660.95 627.339)" fill="#d3d3d3"/>
    <text id="Video_Call" data-name="Video Call" transform="translate(1650 660.898)" fill="#fff" font-size="10" font-family="Roboto-Regular, Roboto"><tspan x="0" y="9">Video Call</tspan></text>
  </g>
</svg>
